<svg width="1362" height="807" viewBox="0 0 1362 807" fill="none" xmlns="http://www.w3.org/2000/svg">
<g opacity="0.3">
<circle cx="183.5" cy="539.59" r="14.5" fill="#FFCCBC"/>
<circle opacity="0.580995" cx="356.578" cy="76.9474" r="14.5" transform="rotate(129.803 356.578 76.9474)" fill="#FFCCBC"/>
<circle opacity="0.783407" cx="589.691" cy="661.781" r="14.5" transform="rotate(-89.241 589.691 661.781)" fill="#FFCCBC"/>
<circle opacity="0.985059" cx="661.273" cy="686.689" r="14.5" transform="rotate(119.154 661.273 686.689)" fill="#FFCCBC"/>
<circle opacity="0.266913" cx="237.898" cy="168.138" r="14.5" transform="rotate(-84.1695 237.898 168.138)" fill="#FFCCBC"/>
<circle opacity="0.826647" cx="519.159" cy="322.068" r="14.5" transform="rotate(174.421 519.159 322.068)" fill="#FFCCBC"/>
<circle opacity="0.817065" cx="878.5" cy="508.59" r="14.5" fill="#FFCCBC"/>
<circle opacity="0.531636" cx="207.923" cy="96.2172" r="14.5" transform="rotate(33.9704 207.923 96.2172)" fill="#FFCCBC"/>
<circle opacity="0.436077" cx="166.91" cy="550.653" r="14.5" transform="rotate(81.1266 166.91 550.653)" fill="#FFCCBC"/>
<circle opacity="0.324225" cx="1085.1" cy="780.003" r="14.5" transform="rotate(58.8155 1085.1 780.003)" fill="#FFCCBC"/>
<circle opacity="0.370464" cx="683.719" cy="620.071" r="14.5" transform="rotate(115.097 683.719 620.071)" fill="#FFCCBC"/>
<circle opacity="0.750507" cx="668.335" cy="19.5824" r="14.5" transform="rotate(110.534 668.335 19.5824)" fill="#FFCCBC"/>
<circle opacity="0.19176" cx="1130.14" cy="515.256" r="14.5" transform="rotate(-55.7761 1130.14 515.256)" fill="#FFCCBC"/>
<circle opacity="0.390921" cx="324.347" cy="331.709" r="14.5" transform="rotate(-82.1409 324.347 331.709)" fill="#FFCCBC"/>
<circle opacity="0.94451" cx="363.271" cy="700.78" r="14.5" transform="rotate(-72.0014 363.271 700.78)" fill="#FFCCBC"/>
<circle opacity="0.665653" cx="1344.04" cy="788.762" r="14.5" transform="rotate(-167.325 1344.04 788.762)" fill="#FFCCBC"/>
<circle opacity="0.758132" cx="647.422" cy="138.657" r="14.5" transform="rotate(76.0551 647.422 138.657)" fill="#FFCCBC"/>
<circle opacity="0.208425" cx="1077.43" cy="483.105" r="14.5" transform="rotate(-70.9871 1077.43 483.105)" fill="#FFCCBC"/>
<circle opacity="0.849517" cx="19.1741" cy="426.044" r="14.5" transform="rotate(67.4353 19.1741 426.044)" fill="#FFCCBC"/>
<circle opacity="0.139951" cx="978.445" cy="434.676" r="14.5" transform="rotate(-40.565 978.445 434.676)" fill="#FFCCBC"/>
<circle opacity="0.134772" cx="478.376" cy="207.398" r="14.5" transform="rotate(-38.5364 478.376 207.398)" fill="#FFCCBC"/>
<circle opacity="0.516309" cx="868.988" cy="679.901" r="14.5" transform="rotate(96.3376 868.988 679.901)" fill="#FFCCBC"/>
<circle opacity="0.0103797" cx="1265.63" cy="100.986" r="14.5" transform="rotate(-106.986 1265.63 100.986)" fill="#FFCCBC"/>
<circle opacity="0.685953" cx="77.8065" cy="521.271" r="14.5" transform="rotate(78.0837 77.8065 521.271)" fill="#FFCCBC"/>
</g>
</svg>
