<svg width="23" height="32" viewBox="0 0 23 32" fill="none" xmlns="http://www.w3.org/2000/svg">
<g clip-path="url(#clip0_0_95)">
<path d="M6.0011 31.1218C9.03649 31.1218 11.5 28.8636 11.5 26.0813V21.0408H6.0011C2.9657 21.0408 0.502197 23.2989 0.502197 26.0813C0.502197 28.8636 2.9657 31.1218 6.0011 31.1218Z" fill="#0ACF83"/>
<path d="M0.502197 15.9997C0.502197 13.2174 2.9657 10.9592 6.0011 10.9592H11.5V21.0402H6.0011C2.9657 21.0402 0.502197 18.7821 0.502197 15.9997Z" fill="#A259FF"/>
<path d="M0.503799 5.91893C0.503799 3.13657 2.96731 0.878418 6.0027 0.878418H11.5016V10.9594H6.0027C2.96731 10.9594 0.503799 8.70129 0.503799 5.91893Z" fill="#F24E1E"/>
<path d="M11.5 0.878418H16.9989C20.0343 0.878418 22.4978 3.13657 22.4978 5.91893C22.4978 8.70129 20.0343 10.9594 16.9989 10.9594H11.5V0.878418Z" fill="#FF7262"/>
<path d="M22.4978 15.9997C22.4978 18.7821 20.0343 21.0402 16.9989 21.0402C13.9635 21.0402 11.5 18.7821 11.5 15.9997C11.5 13.2174 13.9635 10.9592 16.9989 10.9592C20.0343 10.9592 22.4978 13.2174 22.4978 15.9997Z" fill="#1ABCFE"/>
</g>
<defs>
<clipPath id="clip0_0_95">
<rect width="22" height="30.243" fill="white" transform="translate(0.5 0.878418)"/>
</clipPath>
</defs>
</svg>
