<svg width="135" height="36" viewBox="0 0 135 36" fill="none" xmlns="http://www.w3.org/2000/svg">
<path d="M22.1468 16.84C23.2388 16.84 24.0708 16.84 24.0708 15.696C24.0708 14.838 23.8108 13.46 23.8108 12.108C23.8108 11.25 23.9148 10.002 23.9148 9.768C23.9148 8.988 23.5248 8.52 21.8868 7.844C20.6388 7.35 18.2208 6.674 15.7508 6.674C13.9568 6.674 10.8368 7.038 8.21079 9.144C5.74079 11.094 4.83079 14.058 4.83079 17.412C4.83079 21.13 5.97479 23.782 8.00279 25.524C10.0308 27.266 12.9428 28.072 16.4528 28.072C17.7268 28.072 22.6668 27.786 23.2388 26.434C23.3948 26.07 23.6808 24.12 23.7848 23.678C23.8888 23.236 24.5908 21.052 24.5908 20.532C24.5908 19.934 24.0968 19.622 23.6548 19.622C23.0828 19.622 20.0148 20.402 17.8828 20.402C15.1008 20.402 13.1768 19.778 13.1768 16.684C13.1768 15.514 13.4368 13.356 15.4388 13.356C16.6608 13.356 17.1288 14.11 17.1288 15.176C17.1288 16.398 17.1288 16.84 19.0008 16.84H22.1468ZM34.8799 10.548C29.3159 10.548 25.5459 13.564 25.5459 19.336C25.5459 25.108 29.2899 28.15 34.8799 28.15C40.4699 28.15 44.2139 25.186 44.2139 19.31C44.2139 13.668 40.5479 10.548 34.9059 10.548H34.8799ZM34.8539 16.19C36.3619 16.19 36.5179 18.088 36.5179 19.206C36.5179 20.272 36.4139 22.248 34.9059 22.248C33.4499 22.248 33.2419 20.376 33.2419 19.31C33.2419 18.322 33.4499 16.19 34.8279 16.19H34.8539ZM55.6019 10.99C54.6399 10.99 53.7039 11.276 52.9499 11.9C52.5079 12.264 52.4299 12.264 52.2739 12.264C52.0919 12.264 52.0659 12.186 51.8839 11.588C51.7279 11.042 51.3639 11.016 51.1559 11.016C50.8179 11.016 50.3499 11.198 49.0499 11.198C48.6599 11.198 46.7099 11.016 46.2679 11.016C45.2279 11.016 45.2019 11.9 45.2019 12.108C45.2019 12.446 45.2539 12.654 45.6439 13.2C45.9559 13.642 45.9819 13.85 45.9819 15.54V23.158C45.9819 24.744 45.9299 25.03 45.6439 25.498C45.2539 26.122 45.2019 26.226 45.2019 26.59C45.2019 26.876 45.3059 27.682 46.2679 27.682C46.9699 27.682 48.2699 27.5 49.9339 27.5C51.5199 27.5 52.8199 27.682 53.4179 27.682C54.3279 27.682 54.4579 26.902 54.4579 26.616C54.4579 26.226 54.4059 26.122 54.0159 25.498C53.7819 25.108 53.6779 24.952 53.6779 23.158V21.806C53.6779 20.428 53.4439 20.038 53.4439 19.492C53.4439 18.66 54.0939 18.036 54.9259 18.036C55.1599 18.036 55.9919 18.166 56.2259 18.166C56.8759 18.166 57.0839 17.594 57.0839 17.282C57.0319 16.632 56.9279 16.008 56.9279 15.358C56.9279 13.512 57.0839 12.732 57.0839 12.134C57.0839 10.99 56.1479 10.99 55.6279 10.99H55.6019ZM68.4 25.108C68.4 26.902 68.4 27.682 69.57 27.682C70.376 27.682 71.312 27.5 72.17 27.5C73.522 27.5 74.978 27.682 75.472 27.682C76.356 27.682 76.512 26.928 76.512 26.616C76.512 26.226 76.46 26.122 76.07 25.498C75.758 25.004 75.732 24.796 75.732 23.158V17.178C75.732 16.398 75.706 14.032 74.484 12.576C73.366 11.25 71.65 10.626 69.934 10.626C68.92 10.626 67.49 10.756 66.138 12.108C65.618 12.628 65.488 12.706 65.332 12.706C65.098 12.706 65.072 12.472 65.046 12.082C64.994 11.666 64.916 11.016 64.084 11.016C63.72 11.016 62.628 11.198 61.718 11.198C60.808 11.198 59.924 11.016 59.014 11.016C57.974 11.016 57.948 11.848 57.948 12.108C57.948 12.498 58.026 12.602 58.39 13.2C58.676 13.668 58.728 13.85 58.728 15.54V23.158C58.728 24.744 58.676 25.03 58.39 25.498C58 26.122 57.948 26.226 57.948 26.59C57.948 26.876 58.052 27.682 59.014 27.682C59.742 27.682 61.302 27.5 62.472 27.5C63.98 27.5 65.254 27.682 65.8 27.682C66.658 27.682 66.84 26.98 66.84 26.616C66.84 26.2 66.736 26.07 66.398 25.498C66.164 25.108 66.06 24.952 66.06 23.158V18.504C66.06 18.27 65.982 17.906 65.982 17.724C65.982 17.048 66.398 16.684 67.126 16.684C68.4 16.684 68.4 17.724 68.4 19.076V25.108ZM93.6961 20.766C94.6321 20.766 94.9701 20.428 94.9701 19.05C94.9701 13.538 91.8501 10.626 86.4161 10.626C79.9161 10.626 77.3681 14.656 77.3681 19.388C77.3681 25.524 81.4501 28.072 87.1441 28.072C89.2761 28.072 91.3821 27.734 92.1361 27.552C93.0461 27.344 93.3061 27.084 93.4101 26.538C93.5661 25.758 93.6961 24.848 93.9041 24.172C94.1381 23.418 94.3201 22.846 94.3201 22.638C94.3201 22.378 94.0861 21.962 93.5661 21.962C93.3321 21.962 92.5001 22.17 91.9801 22.274C90.3941 22.586 89.5621 22.664 88.2881 22.664C87.3521 22.664 85.0641 22.508 85.0641 21.104C85.0641 20.766 85.2981 20.766 85.8701 20.766H93.6961ZM85.6881 17.88C85.0121 17.88 84.9081 17.698 84.9081 17.334C84.9081 16.32 85.6101 15.592 86.6241 15.592C87.6641 15.592 88.3141 16.268 88.3141 17.308C88.3141 17.724 88.1321 17.88 87.2741 17.88H85.6881ZM96.7377 23.158C96.7377 24.744 96.6857 25.03 96.3997 25.498C96.0097 26.122 95.9577 26.226 95.9577 26.59C95.9577 26.876 96.0617 27.682 97.0237 27.682C97.7517 27.682 99.2857 27.5 100.482 27.5C101.99 27.5 103.264 27.682 103.81 27.682C104.668 27.682 104.85 26.98 104.85 26.616C104.85 26.2 104.746 26.07 104.408 25.498C104.174 25.108 104.07 24.952 104.07 23.158V8.546C104.07 8.026 104.07 7.064 103.212 7.064C102.874 7.064 101.626 7.246 100.352 7.246C99.2597 7.246 98.1937 7.064 97.1017 7.064C96.6857 7.064 95.9577 7.194 95.9577 8.156C95.9577 8.546 96.0097 8.65 96.3997 9.274C96.6857 9.742 96.7377 9.82 96.7377 11.588V23.158ZM110.641 5.79C109.107 5.79 106.429 6.05 106.429 7.818C106.429 9.43 108.275 9.82 110.641 9.82C112.747 9.82 114.827 9.534 114.827 7.818C114.827 5.972 111.915 5.79 110.667 5.79H110.641ZM106.767 23.158C106.767 24.744 106.741 25.03 106.429 25.498C106.013 26.122 105.987 26.226 105.987 26.59C105.987 26.85 106.091 27.682 107.053 27.682C107.755 27.682 108.665 27.5 110.719 27.5C112.305 27.5 113.631 27.682 114.203 27.682C115.087 27.682 115.243 26.98 115.243 26.616C115.243 26.2 115.139 26.07 114.801 25.498C114.567 25.108 114.463 24.952 114.463 23.158V15.54C114.463 13.746 114.541 13.59 114.801 13.2C115.191 12.602 115.243 12.498 115.243 12.082C115.243 11.718 115.139 11.016 114.151 11.016C113.345 11.016 112.227 11.328 110.823 11.328C109.133 11.328 108.145 11.016 107.053 11.016C106.377 11.016 105.987 11.432 105.987 12.108C105.987 12.498 106.065 12.602 106.429 13.2C106.741 13.668 106.767 13.902 106.767 15.54V23.158ZM119.647 10.73C118.581 10.73 118.503 11.406 118.451 11.9C118.269 13.252 118.217 13.642 117.905 14.916C117.827 15.28 117.645 15.852 117.645 16.086C117.645 16.424 118.009 16.918 118.607 16.918C118.815 16.918 118.945 16.892 120.193 16.528C121.259 16.216 123.001 15.982 124.015 15.982C125.575 15.982 126.199 16.346 126.199 17.074C126.199 17.412 126.095 17.62 125.809 17.698C125.549 17.776 125.107 17.776 124.457 17.802C119.361 17.828 116.397 19.258 116.397 22.742C116.397 24.952 117.801 27.916 122.091 27.916C124.067 27.916 124.795 27.344 126.043 26.382C126.225 26.226 126.329 26.148 126.485 26.148C126.667 26.148 126.693 26.304 126.771 26.798C126.849 27.266 127.031 27.682 127.681 27.682C128.019 27.682 129.501 27.5 130.177 27.5C131.165 27.5 132.491 27.682 133.115 27.682C134.025 27.682 134.181 26.928 134.181 26.616C134.181 26.226 134.129 26.122 133.739 25.498C133.479 25.108 133.401 24.952 133.401 23.158V17.464C133.401 15.384 133.401 14.006 132.127 12.654C131.035 11.484 129.033 10.626 125.991 10.626C124.951 10.626 123.209 10.704 122.169 10.886C122.013 10.912 121.129 11.094 120.947 11.094C120.791 11.094 120.635 11.016 120.453 10.912C120.271 10.808 119.985 10.73 119.673 10.73H119.647ZM126.095 21.65C126.095 22.248 125.861 23.47 124.509 23.47C123.911 23.47 123.027 23.158 123.027 22.196C123.027 20.766 124.873 20.766 125.367 20.766C126.043 20.766 126.095 21.078 126.095 21.39V21.65Z" fill="#0B4141"/>
</svg>
